# xmcd
#
# Track frame offsets:
#	150
#	16072
#	41852
#
# Disc length: 1408 seconds
#
# Revision: 0
# Processed by: cddbd v1.5.1PL0 Copyright (c) Steve Scherf et al.
# Submitted via: audiograbber 1.83.01
#
DISCID=1b057e03
DTITLE=Roxie Dean - Everyday Girl
DYEAR=2003
DGENRE=Country
TTITLE0=Everyday Girl
TTITLE1=Women Know Women
TTITLE2=Data Track
EXTD=Enhanced CD: contains video interviews, quips and tips!
EXTT0=Title track
EXTT1=
EXTT2=
PLAYORDER=
